<mxfile>
  <diagram name="Page-1" id="9CptkLMM0ztSRVp6YB5i">
    <mxGraphModel dx="1098" dy="520" grid="0" gridSize="10" guides="1" tooltips="1" connect="1" arrows="1" fold="1" page="1" pageScale="1" pageWidth="827" pageHeight="1169" background="#FFFFFF" math="1" shadow="0">
      <root>
        <mxCell id="0" />
        <mxCell id="1" parent="0" />
        <mxCell id="IWCZdA42NEQNfxDkU8em-63" value="$$y$$" style="ellipse;whiteSpace=wrap;html=1;fillColor=#00CCCC;" parent="1" vertex="1">
          <mxGeometry x="221" y="222.62999999999997" width="30" height="30" as="geometry" />
        </mxCell>
        <mxCell id="IWCZdA42NEQNfxDkU8em-66" value="" style="ellipse;whiteSpace=wrap;html=1;" parent="1" vertex="1">
          <mxGeometry x="176.01" y="762.63" width="19.99" height="20" as="geometry" />
        </mxCell>
        <mxCell id="IWCZdA42NEQNfxDkU8em-67" value="" style="endArrow=none;html=1;rounded=0;curved=1;edgeStyle=orthogonalEdgeStyle;entryX=1;entryY=0.5;entryDx=0;entryDy=0;" parent="1" target="IWCZdA42NEQNfxDkU8em-66" edge="1">
          <mxGeometry width="50" height="50" relative="1" as="geometry">
            <mxPoint x="176" y="772.63" as="sourcePoint" />
            <mxPoint x="196.0000000000024" y="777.62" as="targetPoint" />
            <Array as="points">
              <mxPoint x="176" y="767.63" />
              <mxPoint x="186" y="767.63" />
              <mxPoint x="186" y="777.63" />
              <mxPoint x="196" y="777.63" />
            </Array>
          </mxGeometry>
        </mxCell>
        <mxCell id="IWCZdA42NEQNfxDkU8em-68" value="" style="curved=1;endArrow=classic;html=1;rounded=0;entryX=0.218;entryY=0.978;entryDx=0;entryDy=0;entryPerimeter=0;" parent="1" edge="1">
          <mxGeometry width="50" height="50" relative="1" as="geometry">
            <mxPoint x="236" y="652.6300000000001" as="sourcePoint" />
            <mxPoint x="206.79999999999995" y="611.97" as="targetPoint" />
            <Array as="points">
              <mxPoint x="226" y="652.6300000000001" />
              <mxPoint x="206" y="652.6300000000001" />
            </Array>
          </mxGeometry>
        </mxCell>
        <mxCell id="IWCZdA42NEQNfxDkU8em-69" value="" style="endArrow=none;html=1;rounded=0;curved=1;exitDx=0;exitDy=0;entryX=0.5;entryY=0;entryDx=0;entryDy=0;" parent="1" source="43" target="IWCZdA42NEQNfxDkU8em-164" edge="1">
          <mxGeometry width="50" height="50" relative="1" as="geometry">
            <mxPoint x="234.8" y="392.63" as="sourcePoint" />
            <mxPoint x="234.8" y="752.63" as="targetPoint" />
          </mxGeometry>
        </mxCell>
        <mxCell id="IWCZdA42NEQNfxDkU8em-70" value="" style="curved=1;endArrow=classic;html=1;rounded=0;entryX=0.805;entryY=1.001;entryDx=0;entryDy=0;entryPerimeter=0;" parent="1" edge="1">
          <mxGeometry width="50" height="50" relative="1" as="geometry">
            <mxPoint x="236" y="652.6300000000001" as="sourcePoint" />
            <mxPoint x="265.5" y="612.6600000000001" as="targetPoint" />
            <Array as="points">
              <mxPoint x="246" y="652.6300000000001" />
              <mxPoint x="266" y="652.6300000000001" />
            </Array>
          </mxGeometry>
        </mxCell>
        <mxCell id="IWCZdA42NEQNfxDkU8em-71" value="" style="endArrow=classic;html=1;rounded=0;curved=1;entryX=0.496;entryY=1.001;entryDx=0;entryDy=0;entryPerimeter=0;exitX=0.453;exitY=-0.02;exitDx=0;exitDy=0;exitPerimeter=0;" parent="1" target="IWCZdA42NEQNfxDkU8em-78" edge="1">
          <mxGeometry width="50" height="50" relative="1" as="geometry">
            <mxPoint x="233.68000000000018" y="612.2300000000002" as="sourcePoint" />
            <mxPoint x="235.41999999999996" y="603.1700000000001" as="targetPoint" />
          </mxGeometry>
        </mxCell>
        <mxCell id="IWCZdA42NEQNfxDkU8em-72" value="&lt;font style=&quot;font-size: 8px;&quot;&gt;&lt;b style=&quot;&quot;&gt;Q&lt;/b&gt;&lt;/font&gt;" style="ellipse;whiteSpace=wrap;html=1;fillColor=#FFE599;align=center;" parent="1" vertex="1">
          <mxGeometry x="196" y="622.6300000000001" width="20" height="20" as="geometry" />
        </mxCell>
        <mxCell id="IWCZdA42NEQNfxDkU8em-73" value="&lt;font style=&quot;font-size: 8px;&quot;&gt;&lt;b style=&quot;&quot;&gt;K&lt;/b&gt;&lt;/font&gt;" style="ellipse;whiteSpace=wrap;html=1;fillColor=#FFE599;align=center;" parent="1" vertex="1">
          <mxGeometry x="225.5" y="622.6300000000001" width="20" height="20" as="geometry" />
        </mxCell>
        <mxCell id="IWCZdA42NEQNfxDkU8em-74" value="&lt;font style=&quot;font-size: 8px;&quot;&gt;&lt;b style=&quot;&quot;&gt;V&lt;/b&gt;&lt;/font&gt;" style="ellipse;whiteSpace=wrap;html=1;fillColor=#FFE599;align=center;" parent="1" vertex="1">
          <mxGeometry x="256" y="622.6300000000001" width="20" height="20" as="geometry" />
        </mxCell>
        <mxCell id="IWCZdA42NEQNfxDkU8em-75" value="" style="endArrow=none;html=1;rounded=0;curved=1;" parent="1" source="IWCZdA42NEQNfxDkU8em-76" edge="1">
          <mxGeometry width="50" height="50" relative="1" as="geometry">
            <mxPoint x="236" y="772.63" as="sourcePoint" />
            <mxPoint x="196" y="772.63" as="targetPoint" />
          </mxGeometry>
        </mxCell>
        <mxCell id="IWCZdA42NEQNfxDkU8em-78" value="Multi-Head&amp;nbsp;&lt;div&gt;Self-Attention&amp;nbsp;&lt;div&gt;&lt;font style=&quot;font-size: 9px;&quot;&gt;with causal masking&lt;/font&gt;&lt;/div&gt;&lt;/div&gt;" style="rounded=1;whiteSpace=wrap;html=1;fillColor=#FFD966;strokeColor=#FFFFFF;" parent="1" vertex="1">
          <mxGeometry x="184.12" y="552.6300000000001" width="100" height="50" as="geometry" />
        </mxCell>
        <mxCell id="IWCZdA42NEQNfxDkU8em-79" value="" style="shape=waypoint;sketch=0;fillStyle=solid;size=6;pointerEvents=1;points=[];fillColor=none;resizable=0;rotatable=0;perimeter=centerPerimeter;snapToPoint=1;" parent="1" vertex="1">
          <mxGeometry x="225" y="702.63" width="20" height="20" as="geometry" />
        </mxCell>
        <mxCell id="IWCZdA42NEQNfxDkU8em-80" value="" style="edgeStyle=elbowEdgeStyle;elbow=vertical;endArrow=classic;html=1;curved=0;rounded=0;endSize=8;startSize=8;entryX=0;entryY=0.5;entryDx=0;entryDy=0;" parent="1" source="IWCZdA42NEQNfxDkU8em-79" target="43" edge="1">
          <mxGeometry width="50" height="50" relative="1" as="geometry">
            <mxPoint x="226.25" y="710.1000000000001" as="sourcePoint" />
            <mxPoint x="216.99999999999727" y="536.3599999999999" as="targetPoint" />
            <Array as="points">
              <mxPoint x="151" y="626" />
            </Array>
          </mxGeometry>
        </mxCell>
        <mxCell id="IWCZdA42NEQNfxDkU8em-544" value="&lt;font style=&quot;font-size: 8px;&quot;&gt;Skip&lt;/font&gt;&lt;div&gt;&lt;font style=&quot;font-size: 8px;&quot;&gt;connection&lt;/font&gt;&lt;/div&gt;" style="edgeLabel;html=1;align=center;verticalAlign=middle;resizable=0;points=[];" parent="IWCZdA42NEQNfxDkU8em-80" vertex="1" connectable="0">
          <mxGeometry x="0.101" y="-1" relative="1" as="geometry">
            <mxPoint as="offset" />
          </mxGeometry>
        </mxCell>
        <mxCell id="IWCZdA42NEQNfxDkU8em-82" value="" style="shape=waypoint;sketch=0;fillStyle=solid;size=6;pointerEvents=1;points=[];fillColor=none;resizable=0;rotatable=0;perimeter=centerPerimeter;snapToPoint=1;" parent="1" vertex="1">
          <mxGeometry x="225" y="504.6300000000001" width="20" height="20" as="geometry" />
        </mxCell>
        <mxCell id="IWCZdA42NEQNfxDkU8em-81" value="" style="endArrow=none;html=1;rounded=0;curved=1;exitX=0.5;exitY=1;exitDx=0;exitDy=0;entryDx=0;entryDy=0;" parent="1" source="45" target="IWCZdA42NEQNfxDkU8em-82" edge="1">
          <mxGeometry width="50" height="50" relative="1" as="geometry">
            <mxPoint x="235.75" y="371.72" as="sourcePoint" />
            <mxPoint x="234.8" y="752.63" as="targetPoint" />
          </mxGeometry>
        </mxCell>
        <mxCell id="IWCZdA42NEQNfxDkU8em-83" value="" style="edgeStyle=elbowEdgeStyle;elbow=horizontal;endArrow=classic;html=1;curved=0;rounded=0;endSize=8;startSize=8;entryX=0;entryY=0.5;entryDx=0;entryDy=0;" parent="1" source="IWCZdA42NEQNfxDkU8em-82" target="45" edge="1">
          <mxGeometry width="50" height="50" relative="1" as="geometry">
            <mxPoint x="245" y="702.63" as="sourcePoint" />
            <mxPoint x="215.75" y="368.66999999999996" as="targetPoint" />
            <Array as="points">
              <mxPoint x="150" y="441" />
            </Array>
          </mxGeometry>
        </mxCell>
        <mxCell id="IWCZdA42NEQNfxDkU8em-542" value="&lt;font style=&quot;font-size: 8px;&quot;&gt;Skip&lt;/font&gt;&lt;div&gt;&lt;font style=&quot;font-size: 8px;&quot;&gt;connection&lt;/font&gt;&lt;/div&gt;" style="edgeLabel;html=1;align=center;verticalAlign=middle;resizable=0;points=[];" parent="IWCZdA42NEQNfxDkU8em-83" vertex="1" connectable="0">
          <mxGeometry x="0.1327" relative="1" as="geometry">
            <mxPoint x="1" y="2" as="offset" />
          </mxGeometry>
        </mxCell>
        <mxCell id="IWCZdA42NEQNfxDkU8em-85" value="FFN&lt;div&gt;&lt;br&gt;&lt;div&gt;&lt;br&gt;&lt;/div&gt;&lt;div&gt;&lt;br&gt;&lt;/div&gt;&lt;div&gt;&lt;br&gt;&lt;/div&gt;&lt;div&gt;&lt;br&gt;&lt;/div&gt;&lt;/div&gt;" style="rounded=1;whiteSpace=wrap;html=1;fillColor=#F19C99;" parent="1" vertex="1">
          <mxGeometry x="186" y="382.63" width="100" height="90" as="geometry" />
        </mxCell>
        <mxCell id="IWCZdA42NEQNfxDkU8em-86" value="LayerNorm" style="rounded=1;whiteSpace=wrap;html=1;fillColor=#E6E6E6;" parent="1" vertex="1">
          <mxGeometry x="186" y="482.6300000000001" width="100" height="20" as="geometry" />
        </mxCell>
        <mxCell id="IWCZdA42NEQNfxDkU8em-93" value="LayerNorm" style="rounded=1;whiteSpace=wrap;html=1;fillColor=#E6E6E6;" parent="1" vertex="1">
          <mxGeometry x="186" y="672.63" width="100" height="20" as="geometry" />
        </mxCell>
        <mxCell id="IWCZdA42NEQNfxDkU8em-103" value="ReLU" style="rounded=1;whiteSpace=wrap;html=1;fillColor=#9AC7BF;" parent="1" vertex="1">
          <mxGeometry x="205.51" y="423" width="60" height="14" as="geometry" />
        </mxCell>
        <mxCell id="IWCZdA42NEQNfxDkU8em-106" value="&lt;font style=&quot;font-size: 10px;&quot;&gt;Linear (2)&lt;/font&gt;" style="rounded=1;whiteSpace=wrap;html=1;fillColor=#CCCCFF;" parent="1" vertex="1">
          <mxGeometry x="206" y="399.09" width="60.5" height="14" as="geometry" />
        </mxCell>
        <mxCell id="IWCZdA42NEQNfxDkU8em-107" value="&lt;font style=&quot;font-size: 10px;&quot;&gt;Linear (1)&lt;/font&gt;" style="rounded=1;whiteSpace=wrap;html=1;fillColor=#CCCCFF;" parent="1" vertex="1">
          <mxGeometry x="206" y="442" width="59" height="14" as="geometry" />
        </mxCell>
        <mxCell id="IWCZdA42NEQNfxDkU8em-109" value="&lt;font style=&quot;font-size: 10px;&quot;&gt;EmbeddingLayer&lt;/font&gt;" style="rounded=1;whiteSpace=wrap;html=1;fillColor=#99FF99;" parent="1" vertex="1">
          <mxGeometry x="188.25" y="842.63" width="95" height="20" as="geometry" />
        </mxCell>
        <mxCell id="IWCZdA42NEQNfxDkU8em-110" value="&lt;font style=&quot;font-size: 10px;&quot;&gt;EmbeddingLayer&lt;/font&gt;" style="rounded=1;whiteSpace=wrap;html=1;fillColor=#99FF99;" parent="1" vertex="1">
          <mxGeometry x="56" y="762.63" width="95" height="20" as="geometry" />
        </mxCell>
        <mxCell id="IWCZdA42NEQNfxDkU8em-111" value="" style="endArrow=none;html=1;rounded=0;curved=1;entryX=1;entryY=0.5;entryDx=0;entryDy=0;exitX=0;exitY=0.5;exitDx=0;exitDy=0;" parent="1" source="IWCZdA42NEQNfxDkU8em-66" target="IWCZdA42NEQNfxDkU8em-110" edge="1">
          <mxGeometry width="50" height="50" relative="1" as="geometry">
            <mxPoint x="246" y="782.63" as="sourcePoint" />
            <mxPoint x="206" y="782.63" as="targetPoint" />
          </mxGeometry>
        </mxCell>
        <mxCell id="IWCZdA42NEQNfxDkU8em-113" value="$$x$$" style="ellipse;whiteSpace=wrap;html=1;fillColor=#99FF99;" parent="1" vertex="1">
          <mxGeometry x="220" y="789.63" width="30" height="30" as="geometry" />
        </mxCell>
        <mxCell id="IWCZdA42NEQNfxDkU8em-114" value="" style="endArrow=none;html=1;rounded=0;curved=1;" parent="1" target="IWCZdA42NEQNfxDkU8em-76" edge="1">
          <mxGeometry width="50" height="50" relative="1" as="geometry">
            <mxPoint x="236" y="772.63" as="sourcePoint" />
            <mxPoint x="196" y="772.63" as="targetPoint" />
          </mxGeometry>
        </mxCell>
        <mxCell id="IWCZdA42NEQNfxDkU8em-76" value="&lt;font style=&quot;font-size: 8px;&quot;&gt;$$+$$&lt;/font&gt;" style="ellipse;whiteSpace=wrap;html=1;align=center;" parent="1" vertex="1">
          <mxGeometry x="226.25" y="764.13" width="18.5" height="18.5" as="geometry" />
        </mxCell>
        <mxCell id="IWCZdA42NEQNfxDkU8em-128" value="&lt;font style=&quot;font-size: 14px;&quot;&gt;&lt;font style=&quot;&quot;&gt;&lt;b style=&quot;&quot;&gt;Transformer b&lt;/b&gt;&lt;/font&gt;&lt;b style=&quot;background-color: transparent; color: light-dark(rgb(0, 0, 0), rgb(255, 255, 255));&quot;&gt;lock&lt;/b&gt;&lt;/font&gt;&lt;div&gt;&lt;div&gt;&lt;font size=&quot;3&quot; style=&quot;&quot;&gt;&lt;b style=&quot;&quot;&gt;x N&lt;/b&gt;&lt;/font&gt;&lt;/div&gt;&lt;/div&gt;" style="text;html=1;align=center;verticalAlign=middle;whiteSpace=wrap;rounded=0;rotation=0;" parent="1" vertex="1">
          <mxGeometry x="15" y="527.63" width="90" height="30" as="geometry" />
        </mxCell>
        <mxCell id="IWCZdA42NEQNfxDkU8em-131" value="&lt;div&gt;&lt;font style=&quot;font-size: 14px;&quot;&gt;&lt;b style=&quot;&quot;&gt;LLM Head&lt;/b&gt;&lt;/font&gt;&lt;/div&gt;" style="text;html=1;align=center;verticalAlign=middle;whiteSpace=wrap;rounded=0;" parent="1" vertex="1">
          <mxGeometry x="36" y="261.5" width="60" height="30" as="geometry" />
        </mxCell>
        <mxCell id="IWCZdA42NEQNfxDkU8em-132" value="&lt;span style=&quot;background-color: rgb(153, 255, 153);&quot;&gt;&lt;b style=&quot;&quot;&gt;&lt;font style=&quot;font-size: 8px;&quot;&gt;token embeddings&lt;/font&gt;&lt;/b&gt;&lt;/span&gt;" style="text;html=1;align=center;verticalAlign=middle;whiteSpace=wrap;rounded=0;fillColor=#FFFFFF;" parent="1" vertex="1">
          <mxGeometry x="188.13" y="827.72" width="94.75" height="7.91" as="geometry" />
        </mxCell>
        <mxCell id="IWCZdA42NEQNfxDkU8em-164" value="$$\text{idx}$$" style="ellipse;whiteSpace=wrap;html=1;fillColor=#FFCCFF;" parent="1" vertex="1">
          <mxGeometry x="220" y="901.63" width="30" height="30" as="geometry" />
        </mxCell>
        <mxCell id="IWCZdA42NEQNfxDkU8em-165" value="&lt;span style=&quot;font-size: 10px;&quot;&gt;&lt;b&gt;batch of sequences of token ids&lt;/b&gt;&lt;/span&gt;" style="text;html=1;align=center;verticalAlign=middle;whiteSpace=wrap;rounded=0;" parent="1" vertex="1">
          <mxGeometry x="158.62" y="931.63" width="160" height="30" as="geometry" />
        </mxCell>
        <mxCell id="IWCZdA42NEQNfxDkU8em-178" value="&lt;b style=&quot;&quot;&gt;&lt;font style=&quot;font-size: 6px;&quot;&gt;vocab_size x n_embd&lt;/font&gt;&lt;/b&gt;" style="text;html=1;align=center;verticalAlign=middle;whiteSpace=wrap;rounded=0;fillColor=#FFFFFF;" parent="1" vertex="1">
          <mxGeometry x="173" y="864.72" width="126" height="14" as="geometry" />
        </mxCell>
        <mxCell id="IWCZdA42NEQNfxDkU8em-179" value="&lt;b style=&quot;&quot;&gt;&lt;font style=&quot;font-size: 6px;&quot;&gt;seq_size x n_embd&lt;/font&gt;&lt;/b&gt;" style="text;html=1;align=center;verticalAlign=middle;whiteSpace=wrap;rounded=0;" parent="1" vertex="1">
          <mxGeometry x="40.5" y="780.75" width="126" height="15" as="geometry" />
        </mxCell>
        <mxCell id="IWCZdA42NEQNfxDkU8em-257" value="" style="edgeStyle=orthogonalEdgeStyle;curved=1;rounded=0;orthogonalLoop=1;jettySize=auto;html=1;entryX=0.47;entryY=1.071;entryDx=0;entryDy=0;entryPerimeter=0;" parent="1" edge="1">
          <mxGeometry relative="1" as="geometry">
            <mxPoint x="516.3100000000001" y="400.28" as="sourcePoint" />
          </mxGeometry>
        </mxCell>
        <mxCell id="IWCZdA42NEQNfxDkU8em-348" value="&lt;b style=&quot;&quot;&gt;&lt;font style=&quot;font-size: 6px;&quot;&gt;n_embd x vocab_size&lt;/font&gt;&lt;/b&gt;" style="text;html=1;align=center;verticalAlign=middle;whiteSpace=wrap;rounded=0;" parent="1" vertex="1">
          <mxGeometry x="237" y="302.63" width="70" height="15" as="geometry" />
        </mxCell>
        <mxCell id="IWCZdA42NEQNfxDkU8em-349" value="Multi-Head&amp;nbsp;&lt;div&gt;Self-Attention&amp;nbsp;&lt;div&gt;&lt;font style=&quot;font-size: 9px;&quot;&gt;with causal masking&lt;/font&gt;&lt;/div&gt;&lt;/div&gt;" style="rounded=1;whiteSpace=wrap;html=1;fillColor=#FFD966;strokeColor=#FFFFFF;" parent="1" vertex="1">
          <mxGeometry x="187.74" y="557.6300000000001" width="100" height="50" as="geometry" />
        </mxCell>
        <mxCell id="IWCZdA42NEQNfxDkU8em-352" value="" style="endArrow=none;html=1;rounded=0;curved=1;exitX=0.5;exitY=1;exitDx=0;exitDy=0;entryDx=0;entryDy=0;" parent="1" source="IWCZdA42NEQNfxDkU8em-63" edge="1">
          <mxGeometry width="50" height="50" relative="1" as="geometry">
            <mxPoint x="236" y="252.72" as="sourcePoint" />
            <mxPoint x="235.76349676962582" y="359.51999999999987" as="targetPoint" />
          </mxGeometry>
        </mxCell>
        <mxCell id="IWCZdA42NEQNfxDkU8em-353" value="&lt;font style=&quot;font-size: 10px;&quot;&gt;Softmax&lt;/font&gt;" style="rounded=1;whiteSpace=wrap;html=1;fillColor=#CCFFFF;" parent="1" vertex="1">
          <mxGeometry x="185" y="272.63" width="100" height="14" as="geometry" />
        </mxCell>
        <mxCell id="IWCZdA42NEQNfxDkU8em-354" value="&lt;font style=&quot;font-size: 10px;&quot;&gt;Linear&lt;/font&gt;" style="rounded=1;whiteSpace=wrap;html=1;fillColor=#CCCCFF;" parent="1" vertex="1">
          <mxGeometry x="186" y="289.63" width="100" height="14" as="geometry" />
        </mxCell>
        <mxCell id="IWCZdA42NEQNfxDkU8em-380" value="Multi-Head&amp;nbsp;&lt;div&gt;Self-Attention&amp;nbsp;&lt;div&gt;&lt;font style=&quot;font-size: 9px;&quot;&gt;with causal masking&lt;/font&gt;&lt;/div&gt;&lt;/div&gt;" style="rounded=1;whiteSpace=wrap;html=1;fillColor=#FFD966;strokeColor=#FFB570;" parent="1" vertex="1">
          <mxGeometry x="193.12" y="562.72" width="100" height="50" as="geometry" />
        </mxCell>
        <mxCell id="IWCZdA42NEQNfxDkU8em-384" value="&lt;span style=&quot;background-color: rgb(153, 255, 153);&quot;&gt;&lt;b style=&quot;&quot;&gt;&lt;font style=&quot;font-size: 8px;&quot;&gt;position embeddings&lt;/font&gt;&lt;/b&gt;&lt;/span&gt;" style="text;html=1;align=center;verticalAlign=middle;whiteSpace=wrap;rounded=0;fillColor=#FFFFFF;" parent="1" vertex="1">
          <mxGeometry x="138.63" y="747.72" width="94.75" height="7.91" as="geometry" />
        </mxCell>
        <mxCell id="IWCZdA42NEQNfxDkU8em-386" value="" style="shape=curlyBracket;whiteSpace=wrap;html=1;rounded=1;labelPosition=left;verticalLabelPosition=middle;align=right;verticalAlign=middle;strokeColor=#999999;" parent="1" vertex="1">
          <mxGeometry x="109" y="363.76000000000005" width="20" height="357.92" as="geometry" />
        </mxCell>
        <mxCell id="IWCZdA42NEQNfxDkU8em-387" value="" style="shape=curlyBracket;whiteSpace=wrap;html=1;rounded=1;labelPosition=left;verticalLabelPosition=middle;align=right;verticalAlign=middle;strokeColor=#999999;" parent="1" vertex="1">
          <mxGeometry x="109" y="229" width="20" height="95" as="geometry" />
        </mxCell>
        <mxCell id="IWCZdA42NEQNfxDkU8em-393" value="&lt;b style=&quot;&quot;&gt;&lt;font style=&quot;font-size: 36px;&quot;&gt;Transformer GPT-Style&amp;nbsp;&lt;/font&gt;&lt;/b&gt;&lt;div&gt;&lt;b style=&quot;&quot;&gt;&lt;font style=&quot;font-size: 24px;&quot;&gt;(Decoder Only)&lt;/font&gt;&lt;/b&gt;&lt;/div&gt;" style="text;html=1;align=center;verticalAlign=middle;whiteSpace=wrap;rounded=0;rotation=0;" parent="1" vertex="1">
          <mxGeometry x="78" y="71" width="671.38" height="101" as="geometry" />
        </mxCell>
        <mxCell id="IWCZdA42NEQNfxDkU8em-529" value="" style="edgeStyle=orthogonalEdgeStyle;curved=1;rounded=0;orthogonalLoop=1;jettySize=auto;html=1;" parent="1" source="IWCZdA42NEQNfxDkU8em-397" edge="1">
          <mxGeometry relative="1" as="geometry">
            <mxPoint x="522.1666666666665" y="415.0000000000002" as="targetPoint" />
          </mxGeometry>
        </mxCell>
        <mxCell id="IWCZdA42NEQNfxDkU8em-397" value="" style="rounded=1;whiteSpace=wrap;html=1;shadow=1;arcSize=12;" parent="1" vertex="1">
          <mxGeometry x="318.62" y="442" width="407.23" height="229" as="geometry" />
        </mxCell>
        <mxCell id="IWCZdA42NEQNfxDkU8em-398" value="" style="shape=cube;whiteSpace=wrap;html=1;boundedLbl=1;backgroundOutline=1;darkOpacity=0.05;darkOpacity2=0.1;size=6;direction=east;rotation=0;" parent="1" vertex="1">
          <mxGeometry x="513.98" y="571.9399999999999" width="50" height="21.81" as="geometry" />
        </mxCell>
        <mxCell id="IWCZdA42NEQNfxDkU8em-399" value="" style="shape=cube;whiteSpace=wrap;html=1;boundedLbl=1;backgroundOutline=1;darkOpacity=0.05;darkOpacity2=0.1;size=6;direction=east;rotation=0;" parent="1" vertex="1">
          <mxGeometry x="524.71" y="580.93" width="50" height="21.81" as="geometry" />
        </mxCell>
        <mxCell id="IWCZdA42NEQNfxDkU8em-400" value="" style="shape=cube;whiteSpace=wrap;html=1;boundedLbl=1;backgroundOutline=1;darkOpacity=0.05;darkOpacity2=0.1;size=6;direction=east;rotation=0;strokeColor=#FFB570;" parent="1" vertex="1">
          <mxGeometry x="533.98" y="591.79" width="50" height="21.81" as="geometry" />
        </mxCell>
        <mxCell id="IWCZdA42NEQNfxDkU8em-401" value="" style="shape=cube;whiteSpace=wrap;html=1;boundedLbl=1;backgroundOutline=1;darkOpacity=0.05;darkOpacity2=0.1;size=6;direction=east;rotation=0;" parent="1" vertex="1">
          <mxGeometry x="613.52" y="570.0899999999999" width="50" height="21.81" as="geometry" />
        </mxCell>
        <mxCell id="IWCZdA42NEQNfxDkU8em-402" value="" style="shape=cube;whiteSpace=wrap;html=1;boundedLbl=1;backgroundOutline=1;darkOpacity=0.05;darkOpacity2=0.1;size=6;direction=east;rotation=0;" parent="1" vertex="1">
          <mxGeometry x="624.25" y="579.0799999999999" width="50" height="21.81" as="geometry" />
        </mxCell>
        <mxCell id="IWCZdA42NEQNfxDkU8em-403" value="" style="shape=cube;whiteSpace=wrap;html=1;boundedLbl=1;backgroundOutline=1;darkOpacity=0.05;darkOpacity2=0.1;size=6;direction=east;rotation=0;strokeColor=#FFB570;" parent="1" vertex="1">
          <mxGeometry x="633.52" y="589.9399999999999" width="50" height="21.81" as="geometry" />
        </mxCell>
        <mxCell id="IWCZdA42NEQNfxDkU8em-404" value="&lt;font style=&quot;font-size: 8px;&quot;&gt;&lt;b style=&quot;&quot;&gt;V&lt;/b&gt;&lt;/font&gt;" style="ellipse;whiteSpace=wrap;html=1;fillColor=#FFE599;align=center;strokeColor=#FFB570;" parent="1" vertex="1">
          <mxGeometry x="624.25" y="529.5699999999999" width="20" height="20" as="geometry" />
        </mxCell>
        <mxCell id="IWCZdA42NEQNfxDkU8em-405" value="&lt;font style=&quot;font-size: 8px;&quot;&gt;$$@$$&lt;/font&gt;" style="ellipse;whiteSpace=wrap;html=1;align=center;" parent="1" vertex="1">
          <mxGeometry x="535.02" y="529.5699999999999" width="18.5" height="18.5" as="geometry" />
        </mxCell>
        <mxCell id="IWCZdA42NEQNfxDkU8em-406" style="edgeStyle=orthogonalEdgeStyle;curved=1;rounded=0;orthogonalLoop=1;jettySize=auto;html=1;entryX=0;entryY=0.5;entryDx=0;entryDy=0;exitX=1;exitY=0.5;exitDx=0;exitDy=0;" parent="1" source="IWCZdA42NEQNfxDkU8em-425" target="IWCZdA42NEQNfxDkU8em-405" edge="1">
          <mxGeometry relative="1" as="geometry">
            <mxPoint x="413.5199999999999" y="570.68" as="sourcePoint" />
            <mxPoint x="466.5199999999999" y="570.68" as="targetPoint" />
          </mxGeometry>
        </mxCell>
        <mxCell id="IWCZdA42NEQNfxDkU8em-407" value="" style="edgeStyle=orthogonalEdgeStyle;curved=1;rounded=0;orthogonalLoop=1;jettySize=auto;html=1;exitX=0.5;exitY=0;exitDx=0;exitDy=0;" parent="1" source="IWCZdA42NEQNfxDkU8em-405" edge="1">
          <mxGeometry relative="1" as="geometry">
            <mxPoint x="543.95" y="515.63" as="targetPoint" />
            <mxPoint x="644.52" y="552.68" as="sourcePoint" />
          </mxGeometry>
        </mxCell>
        <mxCell id="IWCZdA42NEQNfxDkU8em-408" value="" style="shape=crossbar;whiteSpace=wrap;html=1;rounded=1;direction=south;" parent="1" vertex="1">
          <mxGeometry x="574.3199999999999" y="487.1400000000001" width="4.08" height="14" as="geometry" />
        </mxCell>
        <mxCell id="IWCZdA42NEQNfxDkU8em-409" value="" style="shape=crossbar;whiteSpace=wrap;html=1;rounded=1;direction=south;rotation=-45;" parent="1" vertex="1">
          <mxGeometry x="518.1499999999999" y="497.3600000000001" width="3.77" height="8.56" as="geometry" />
        </mxCell>
        <mxCell id="IWCZdA42NEQNfxDkU8em-410" value="&lt;span style=&quot;font-size: 10px;&quot;&gt;&lt;b&gt;B&lt;/b&gt;&lt;/span&gt;" style="text;html=1;align=center;verticalAlign=middle;whiteSpace=wrap;rounded=0;" parent="1" vertex="1">
          <mxGeometry x="574.8900000000001" y="479.1400000000001" width="19.54" height="30" as="geometry" />
        </mxCell>
        <mxCell id="IWCZdA42NEQNfxDkU8em-411" value="&lt;b style=&quot;&quot;&gt;&lt;font style=&quot;font-size: 8px;&quot;&gt;head_size&lt;/font&gt;&lt;/b&gt;" style="text;html=1;align=center;verticalAlign=middle;whiteSpace=wrap;rounded=0;" parent="1" vertex="1">
          <mxGeometry x="475.2699999999999" y="494.14" width="39.11" height="15" as="geometry" />
        </mxCell>
        <mxCell id="IWCZdA42NEQNfxDkU8em-412" value="" style="shape=crossbar;whiteSpace=wrap;html=1;rounded=1;direction=south;rotation=-90;" parent="1" vertex="1">
          <mxGeometry x="545.1499999999999" y="487.14" width="6" height="40.37" as="geometry" />
        </mxCell>
        <mxCell id="IWCZdA42NEQNfxDkU8em-413" value="&lt;span style=&quot;font-size: 10px;&quot;&gt;&lt;b&gt;T&lt;/b&gt;&lt;/span&gt;" style="text;html=1;align=center;verticalAlign=middle;whiteSpace=wrap;rounded=0;" parent="1" vertex="1">
          <mxGeometry x="526.65" y="502.9200000000001" width="50" height="20" as="geometry" />
        </mxCell>
        <mxCell id="IWCZdA42NEQNfxDkU8em-414" value="" style="shape=cube;whiteSpace=wrap;html=1;boundedLbl=1;backgroundOutline=1;darkOpacity=0.05;darkOpacity2=0.1;size=6;direction=east;rotation=0;" parent="1" vertex="1">
          <mxGeometry x="501.14999999999986" y="461.11" width="50" height="21.81" as="geometry" />
        </mxCell>
        <mxCell id="IWCZdA42NEQNfxDkU8em-415" value="" style="shape=crossbar;whiteSpace=wrap;html=1;rounded=1;direction=south;rotation=-45;" parent="1" vertex="1">
          <mxGeometry x="561.8799999999999" y="450.23000000000013" width="5.34" height="39.16" as="geometry" />
        </mxCell>
        <mxCell id="IWCZdA42NEQNfxDkU8em-416" value="&lt;b style=&quot;&quot;&gt;&lt;font style=&quot;font-size: 8px;&quot;&gt;n_embd&lt;/font&gt;&lt;/b&gt;" style="text;html=1;align=center;verticalAlign=middle;whiteSpace=wrap;rounded=0;" parent="1" vertex="1">
          <mxGeometry x="542.5" y="457.23000000000013" width="80" height="15" as="geometry" />
        </mxCell>
        <mxCell id="IWCZdA42NEQNfxDkU8em-417" value="" style="shape=cube;whiteSpace=wrap;html=1;boundedLbl=1;backgroundOutline=1;darkOpacity=0.05;darkOpacity2=0.1;size=6;direction=east;rotation=0;" parent="1" vertex="1">
          <mxGeometry x="511.8799999999999" y="470.1" width="50" height="21.81" as="geometry" />
        </mxCell>
        <mxCell id="IWCZdA42NEQNfxDkU8em-418" value="" style="shape=cube;whiteSpace=wrap;html=1;boundedLbl=1;backgroundOutline=1;darkOpacity=0.05;darkOpacity2=0.1;size=6;direction=east;rotation=0;strokeColor=#FFB570;" parent="1" vertex="1">
          <mxGeometry x="521.1499999999999" y="480.96000000000015" width="50" height="21.81" as="geometry" />
        </mxCell>
        <mxCell id="IWCZdA42NEQNfxDkU8em-419" style="edgeStyle=orthogonalEdgeStyle;curved=1;rounded=0;orthogonalLoop=1;jettySize=auto;html=1;entryX=0;entryY=0.5;entryDx=0;entryDy=0;" parent="1" source="IWCZdA42NEQNfxDkU8em-420" target="IWCZdA42NEQNfxDkU8em-424" edge="1">
          <mxGeometry relative="1" as="geometry" />
        </mxCell>
        <mxCell id="IWCZdA42NEQNfxDkU8em-420" value="&lt;font style=&quot;font-size: 8px;&quot;&gt;&lt;b style=&quot;&quot;&gt;Q&lt;/b&gt;&lt;/font&gt;" style="ellipse;whiteSpace=wrap;html=1;fillColor=#FFE599;align=center;strokeColor=#FFB570;" parent="1" vertex="1">
          <mxGeometry x="383.59999999999997" y="551.9399999999999" width="20" height="20" as="geometry" />
        </mxCell>
        <mxCell id="IWCZdA42NEQNfxDkU8em-421" value="&lt;font style=&quot;font-size: 8px;&quot;&gt;&lt;b style=&quot;&quot;&gt;K&lt;/b&gt;&lt;/font&gt;" style="ellipse;whiteSpace=wrap;html=1;fillColor=#FFE599;align=center;strokeColor=#FFB570;" parent="1" vertex="1">
          <mxGeometry x="528.98" y="551.9399999999999" width="20" height="20" as="geometry" />
        </mxCell>
        <mxCell id="IWCZdA42NEQNfxDkU8em-422" value="" style="edgeStyle=orthogonalEdgeStyle;curved=1;rounded=0;orthogonalLoop=1;jettySize=auto;html=1;" parent="1" source="IWCZdA42NEQNfxDkU8em-421" target="IWCZdA42NEQNfxDkU8em-424" edge="1">
          <mxGeometry relative="1" as="geometry">
            <mxPoint x="463.5199999999999" y="513.82" as="targetPoint" />
            <mxPoint x="528.52" y="549.8199999999999" as="sourcePoint" />
          </mxGeometry>
        </mxCell>
        <mxCell id="IWCZdA42NEQNfxDkU8em-423" value="" style="edgeStyle=orthogonalEdgeStyle;curved=1;rounded=0;orthogonalLoop=1;jettySize=auto;html=1;entryX=0.47;entryY=1.071;entryDx=0;entryDy=0;entryPerimeter=0;" parent="1" source="IWCZdA42NEQNfxDkU8em-424" target="IWCZdA42NEQNfxDkU8em-425" edge="1">
          <mxGeometry relative="1" as="geometry">
            <Array as="points">
              <mxPoint x="466.5199999999999" y="529.68" />
            </Array>
          </mxGeometry>
        </mxCell>
        <mxCell id="IWCZdA42NEQNfxDkU8em-424" value="&lt;font style=&quot;font-size: 8px;&quot;&gt;$$@$$&lt;/font&gt;" style="ellipse;whiteSpace=wrap;html=1;align=center;" parent="1" vertex="1">
          <mxGeometry x="456.7699999999999" y="553.16" width="18.5" height="18.5" as="geometry" />
        </mxCell>
        <mxCell id="IWCZdA42NEQNfxDkU8em-425" value="&lt;font style=&quot;font-size: 10px;&quot;&gt;Softmax&lt;/font&gt;" style="rounded=1;whiteSpace=wrap;html=1;fillColor=#CCFFFF;strokeColor=#FFB570;" parent="1" vertex="1">
          <mxGeometry x="443.5199999999999" y="531.8199999999999" width="50" height="14" as="geometry" />
        </mxCell>
        <mxCell id="IWCZdA42NEQNfxDkU8em-426" value="" style="edgeStyle=orthogonalEdgeStyle;curved=1;rounded=0;orthogonalLoop=1;jettySize=auto;html=1;entryX=1;entryY=0.5;entryDx=0;entryDy=0;exitX=0.093;exitY=0.476;exitDx=0;exitDy=0;exitPerimeter=0;" parent="1" source="IWCZdA42NEQNfxDkU8em-404" target="IWCZdA42NEQNfxDkU8em-405" edge="1">
          <mxGeometry relative="1" as="geometry">
            <mxPoint x="571.25" y="536.68" as="targetPoint" />
            <mxPoint x="624.25" y="537.68" as="sourcePoint" />
          </mxGeometry>
        </mxCell>
        <mxCell id="IWCZdA42NEQNfxDkU8em-427" value="" style="shape=crossbar;whiteSpace=wrap;html=1;rounded=1;direction=south;rotation=-45;" parent="1" vertex="1">
          <mxGeometry x="397.59999999999985" y="616.33" width="3.77" height="8.56" as="geometry" />
        </mxCell>
        <mxCell id="IWCZdA42NEQNfxDkU8em-428" value="&lt;b style=&quot;&quot;&gt;&lt;font style=&quot;font-size: 8px;&quot;&gt;head_size&lt;/font&gt;&lt;/b&gt;" style="text;html=1;align=center;verticalAlign=middle;whiteSpace=wrap;rounded=0;" parent="1" vertex="1">
          <mxGeometry x="354.71999999999997" y="613.1099999999999" width="39.11" height="15" as="geometry" />
        </mxCell>
        <mxCell id="IWCZdA42NEQNfxDkU8em-429" value="" style="shape=cube;whiteSpace=wrap;html=1;boundedLbl=1;backgroundOutline=1;darkOpacity=0.05;darkOpacity2=0.1;size=6;direction=east;rotation=0;" parent="1" vertex="1">
          <mxGeometry x="380.59999999999985" y="580.0799999999999" width="50" height="21.81" as="geometry" />
        </mxCell>
        <mxCell id="IWCZdA42NEQNfxDkU8em-430" value="" style="shape=cube;whiteSpace=wrap;html=1;boundedLbl=1;backgroundOutline=1;darkOpacity=0.05;darkOpacity2=0.1;size=6;direction=east;rotation=0;" parent="1" vertex="1">
          <mxGeometry x="391.32999999999987" y="589.0699999999999" width="50" height="21.81" as="geometry" />
        </mxCell>
        <mxCell id="IWCZdA42NEQNfxDkU8em-431" value="" style="shape=cube;whiteSpace=wrap;html=1;boundedLbl=1;backgroundOutline=1;darkOpacity=0.05;darkOpacity2=0.1;size=6;direction=east;rotation=0;strokeColor=#FFB570;" parent="1" vertex="1">
          <mxGeometry x="400.59999999999985" y="599.93" width="50" height="21.81" as="geometry" />
        </mxCell>
        <mxCell id="IWCZdA42NEQNfxDkU8em-432" value="&lt;font style=&quot;font-size: 10px;&quot;&gt;Linear&lt;/font&gt;" style="rounded=1;whiteSpace=wrap;html=1;fillColor=#CCCCFF;" parent="1" vertex="1">
          <mxGeometry x="404.7799999999999" y="628.1800000000001" width="60.5" height="14" as="geometry" />
        </mxCell>
        <mxCell id="IWCZdA42NEQNfxDkU8em-433" value="&lt;b style=&quot;&quot;&gt;&lt;font style=&quot;font-size: 6px;&quot;&gt;n_embd x head_size&lt;/font&gt;&lt;/b&gt;" style="text;html=1;align=center;verticalAlign=middle;whiteSpace=wrap;rounded=0;" parent="1" vertex="1">
          <mxGeometry x="401.36999999999995" y="637.68" width="70" height="15" as="geometry" />
        </mxCell>
        <mxCell id="IWCZdA42NEQNfxDkU8em-434" value="&lt;b style=&quot;&quot;&gt;&lt;font style=&quot;font-size: 8px; background-color: rgb(255, 217, 102);&quot;&gt;attention scores&lt;/font&gt;&lt;/b&gt;" style="text;html=1;align=center;verticalAlign=middle;whiteSpace=wrap;rounded=0;" parent="1" vertex="1">
          <mxGeometry x="432.7" y="567.8" width="71.65" height="15" as="geometry" />
        </mxCell>
        <mxCell id="IWCZdA42NEQNfxDkU8em-435" value="&lt;b style=&quot;&quot;&gt;&lt;font style=&quot;font-size: 8px; background-color: rgb(255, 217, 102);&quot;&gt;attention weights&lt;/font&gt;&lt;/b&gt;" style="text;html=1;align=center;verticalAlign=middle;whiteSpace=wrap;rounded=0;" parent="1" vertex="1">
          <mxGeometry x="432.7" y="514.57" width="71.65" height="15" as="geometry" />
        </mxCell>
        <mxCell id="IWCZdA42NEQNfxDkU8em-436" value="&lt;font style=&quot;font-size: 10px;&quot;&gt;Linear&lt;/font&gt;" style="rounded=1;whiteSpace=wrap;html=1;fillColor=#CCCCFF;" parent="1" vertex="1">
          <mxGeometry x="532.96" y="628.11" width="60.5" height="14" as="geometry" />
        </mxCell>
        <mxCell id="IWCZdA42NEQNfxDkU8em-437" value="&lt;b style=&quot;&quot;&gt;&lt;font style=&quot;font-size: 6px;&quot;&gt;n_embd x head_size&lt;/font&gt;&lt;/b&gt;" style="text;html=1;align=center;verticalAlign=middle;whiteSpace=wrap;rounded=0;" parent="1" vertex="1">
          <mxGeometry x="529.55" y="637.6099999999999" width="70" height="15" as="geometry" />
        </mxCell>
        <mxCell id="IWCZdA42NEQNfxDkU8em-438" value="&lt;font style=&quot;font-size: 10px;&quot;&gt;Linear&lt;/font&gt;" style="rounded=1;whiteSpace=wrap;html=1;fillColor=#CCCCFF;" parent="1" vertex="1">
          <mxGeometry x="633.3" y="628.1800000000001" width="60.5" height="14" as="geometry" />
        </mxCell>
        <mxCell id="IWCZdA42NEQNfxDkU8em-439" value="&lt;b style=&quot;&quot;&gt;&lt;font style=&quot;font-size: 6px;&quot;&gt;n_embd x head_size&lt;/font&gt;&lt;/b&gt;" style="text;html=1;align=center;verticalAlign=middle;whiteSpace=wrap;rounded=0;" parent="1" vertex="1">
          <mxGeometry x="629.8900000000001" y="637.68" width="70" height="15" as="geometry" />
        </mxCell>
        <mxCell id="IWCZdA42NEQNfxDkU8em-440" value="" style="rounded=1;whiteSpace=wrap;html=1;shadow=1;" parent="1" vertex="1">
          <mxGeometry x="318.61" y="222.63" width="407.23" height="126.47" as="geometry" />
        </mxCell>
        <mxCell id="IWCZdA42NEQNfxDkU8em-441" value="&lt;b style=&quot;&quot;&gt;&lt;font style=&quot;font-size: 8px; background-color: rgb(204, 255, 255);&quot;&gt;logits&amp;nbsp;&lt;/font&gt;&lt;/b&gt;&lt;div&gt;&lt;b style=&quot;&quot;&gt;&lt;font style=&quot;font-size: 8px;&quot;&gt;preference for next tokens&lt;/font&gt;&lt;/b&gt;&lt;/div&gt;" style="text;html=1;align=center;verticalAlign=middle;whiteSpace=wrap;rounded=0;" parent="1" vertex="1">
          <mxGeometry x="336.53000000000003" y="231.99000000000004" width="108.6" height="20" as="geometry" />
        </mxCell>
        <mxCell id="IWCZdA42NEQNfxDkU8em-442" value="" style="shape=crossbar;whiteSpace=wrap;html=1;rounded=1;direction=south;" parent="1" vertex="1">
          <mxGeometry x="627.4400000000002" y="283.65999999999997" width="10" height="34" as="geometry" />
        </mxCell>
        <mxCell id="IWCZdA42NEQNfxDkU8em-443" value="&lt;span style=&quot;font-size: 10px;&quot;&gt;&lt;b&gt;B&lt;/b&gt;&lt;/span&gt;" style="text;html=1;align=center;verticalAlign=middle;whiteSpace=wrap;rounded=0;" parent="1" vertex="1">
          <mxGeometry x="637.98" y="283.65999999999997" width="17.44" height="30" as="geometry" />
        </mxCell>
        <mxCell id="IWCZdA42NEQNfxDkU8em-444" value="&lt;div&gt;&lt;b style=&quot;&quot;&gt;&lt;font style=&quot;font-size: 8px; background-color: rgb(0, 204, 204);&quot;&gt;sampled tokens&lt;/font&gt;&lt;/b&gt;&lt;/div&gt;&lt;div&gt;&lt;b style=&quot;color: rgb(0, 0, 0);&quot;&gt;&lt;font style=&quot;font-size: 8px;&quot;&gt;idx fo next token for each sequence in the batch&lt;/font&gt;&lt;/b&gt;&lt;/div&gt;" style="text;html=1;align=center;verticalAlign=middle;whiteSpace=wrap;rounded=0;" parent="1" vertex="1">
          <mxGeometry x="591.57" y="236.60000000000002" width="120" height="22" as="geometry" />
        </mxCell>
        <mxCell id="IWCZdA42NEQNfxDkU8em-445" value="" style="shape=cube;whiteSpace=wrap;html=1;boundedLbl=1;backgroundOutline=1;darkOpacity=0.05;darkOpacity2=0.1;size=15;direction=east;rotation=0;" parent="1" vertex="1">
          <mxGeometry x="354.72" y="272.78999999999996" width="67.04" height="44.74" as="geometry" />
        </mxCell>
        <mxCell id="IWCZdA42NEQNfxDkU8em-446" value="" style="shape=crossbar;whiteSpace=wrap;html=1;rounded=1;direction=south;" parent="1" vertex="1">
          <mxGeometry x="427.22" y="288.53" width="6.27" height="28.26" as="geometry" />
        </mxCell>
        <mxCell id="IWCZdA42NEQNfxDkU8em-447" value="" style="shape=crossbar;whiteSpace=wrap;html=1;rounded=1;direction=south;rotation=-45;" parent="1" vertex="1">
          <mxGeometry x="417.36" y="266.76999999999987" width="7.27" height="19.09" as="geometry" />
        </mxCell>
        <mxCell id="IWCZdA42NEQNfxDkU8em-448" value="&lt;span style=&quot;font-size: 10px;&quot;&gt;&lt;b&gt;B&lt;/b&gt;&lt;/span&gt;" style="text;html=1;align=center;verticalAlign=middle;whiteSpace=wrap;rounded=0;" parent="1" vertex="1">
          <mxGeometry x="431.04" y="287.6600000000001" width="19.17" height="30" as="geometry" />
        </mxCell>
        <mxCell id="IWCZdA42NEQNfxDkU8em-449" value="&lt;b style=&quot;&quot;&gt;&lt;font style=&quot;font-size: 8px;&quot;&gt;vocab_size&lt;/font&gt;&lt;/b&gt;" style="text;html=1;align=center;verticalAlign=middle;whiteSpace=wrap;rounded=0;" parent="1" vertex="1">
          <mxGeometry x="406.13" y="262.18999999999994" width="80" height="15" as="geometry" />
        </mxCell>
        <mxCell id="IWCZdA42NEQNfxDkU8em-450" value="" style="shape=crossbar;whiteSpace=wrap;html=1;rounded=1;direction=south;rotation=-90;" parent="1" vertex="1">
          <mxGeometry x="393.58000000000004" y="297.6600000000001" width="5.68" height="51.44" as="geometry" />
        </mxCell>
        <mxCell id="IWCZdA42NEQNfxDkU8em-451" value="&lt;span style=&quot;font-size: 10px;&quot;&gt;&lt;b&gt;T&lt;/b&gt;&lt;/span&gt;" style="text;html=1;align=center;verticalAlign=middle;whiteSpace=wrap;rounded=0;" parent="1" vertex="1">
          <mxGeometry x="376.79" y="320.81000000000006" width="38.47" height="20" as="geometry" />
        </mxCell>
        <mxCell id="IWCZdA42NEQNfxDkU8em-452" value="" style="shape=cube;whiteSpace=wrap;html=1;boundedLbl=1;backgroundOutline=1;darkOpacity=0.05;darkOpacity2=0.1;size=13;direction=east;rotation=0;strokeColor=#00CCCC;fillColor=none;" parent="1" vertex="1">
          <mxGeometry x="397.74" y="272.78999999999996" width="24.02" height="47.2" as="geometry" />
        </mxCell>
        <mxCell id="IWCZdA42NEQNfxDkU8em-453" value="&lt;span style=&quot;background-color: rgb(204, 255, 255);&quot;&gt;&lt;b style=&quot;&quot;&gt;&lt;font style=&quot;font-size: 8px;&quot;&gt;probs&lt;/font&gt;&lt;/b&gt;&lt;/span&gt;&lt;div&gt;&lt;b style=&quot;&quot;&gt;&lt;font style=&quot;font-size: 8px;&quot;&gt;probability distribution over vocab size&lt;/font&gt;&lt;/b&gt;&lt;/div&gt;" style="text;html=1;align=center;verticalAlign=middle;whiteSpace=wrap;rounded=0;" parent="1" vertex="1">
          <mxGeometry x="479.7900000000001" y="225.9" width="103.04" height="48.63" as="geometry" />
        </mxCell>
        <mxCell id="IWCZdA42NEQNfxDkU8em-458" value="" style="shape=cube;whiteSpace=wrap;html=1;boundedLbl=1;backgroundOutline=1;darkOpacity=0.05;darkOpacity2=0.1;size=13;direction=east;rotation=0;strokeColor=#00CCCC;fillColor=none;" parent="1" vertex="1">
          <mxGeometry x="519.3" y="279.53" width="24.02" height="47.2" as="geometry" />
        </mxCell>
        <mxCell id="IWCZdA42NEQNfxDkU8em-460" value="" style="shape=cube;whiteSpace=wrap;html=1;boundedLbl=1;backgroundOutline=1;darkOpacity=0.05;darkOpacity2=0.1;size=0;direction=east;rotation=0;strokeColor=#00CCCC;" parent="1" vertex="1">
          <mxGeometry x="613.4200000000002" y="283.65999999999997" width="9.56" height="28" as="geometry" />
        </mxCell>
        <mxCell id="IWCZdA42NEQNfxDkU8em-461" value="&lt;b style=&quot;forced-color-adjust: none; font-family: Helvetica; font-size: 12px; font-style: normal; font-variant-ligatures: normal; font-variant-caps: normal; letter-spacing: normal; orphans: 2; text-align: justify; text-indent: 0px; text-transform: none; widows: 2; word-spacing: 0px; -webkit-text-stroke-width: 0px; white-space: normal; text-decoration-thickness: initial; text-decoration-style: initial; text-decoration-color: initial; background-color: transparent;&quot;&gt;&lt;font style=&quot;forced-color-adjust: none; font-size: 6px; color: rgb(0, 204, 204);&quot;&gt;41&lt;/font&gt;&lt;/b&gt;&lt;div&gt;&lt;b style=&quot;forced-color-adjust: none; font-family: Helvetica; font-size: 12px; font-style: normal; font-variant-ligatures: normal; font-variant-caps: normal; letter-spacing: normal; orphans: 2; text-align: justify; text-indent: 0px; text-transform: none; widows: 2; word-spacing: 0px; -webkit-text-stroke-width: 0px; white-space: normal; text-decoration-thickness: initial; text-decoration-style: initial; text-decoration-color: initial; background-color: transparent;&quot;&gt;&lt;font style=&quot;forced-color-adjust: none; font-size: 6px; color: rgb(0, 204, 204);&quot;&gt;50&amp;nbsp;&lt;/font&gt;&lt;/b&gt;&lt;/div&gt;" style="text;whiteSpace=wrap;html=1;" parent="1" vertex="1">
          <mxGeometry x="613.4200000000002" y="276.11" width="17.27" height="39.09" as="geometry" />
        </mxCell>
        <mxCell id="IWCZdA42NEQNfxDkU8em-462" value="&lt;font style=&quot;font-size: 10px;&quot;&gt;$$\text{idx}_{ T+1}$$&lt;/font&gt;" style="ellipse;whiteSpace=wrap;html=1;fillColor=#00CCCC;" parent="1" vertex="1">
          <mxGeometry x="663.53" y="277.19" width="40.27" height="39.17" as="geometry" />
        </mxCell>
        <mxCell id="IWCZdA42NEQNfxDkU8em-524" style="edgeStyle=orthogonalEdgeStyle;curved=1;rounded=0;orthogonalLoop=1;jettySize=auto;html=1;exitX=0.5;exitY=0;exitDx=0;exitDy=0;entryX=0.5;entryY=1;entryDx=0;entryDy=0;" parent="1" source="IWCZdA42NEQNfxDkU8em-463" target="IWCZdA42NEQNfxDkU8em-397" edge="1">
          <mxGeometry relative="1" as="geometry" />
        </mxCell>
        <mxCell id="IWCZdA42NEQNfxDkU8em-463" value="" style="rounded=1;whiteSpace=wrap;html=1;shadow=1;arcSize=12;" parent="1" vertex="1">
          <mxGeometry x="318.62" y="695" width="407.23" height="180" as="geometry" />
        </mxCell>
        <mxCell id="IWCZdA42NEQNfxDkU8em-464" value="" style="shape=cube;whiteSpace=wrap;html=1;boundedLbl=1;backgroundOutline=1;darkOpacity=0.05;darkOpacity2=0.1;size=0;direction=east;rotation=0;strokeColor=#FF99FF;" parent="1" vertex="1">
          <mxGeometry x="368.94999999999993" y="797.83" width="64.93" height="27.79" as="geometry" />
        </mxCell>
        <mxCell id="IWCZdA42NEQNfxDkU8em-465" value="&lt;span style=&quot;font-size: 10px;&quot;&gt;&lt;b&gt;B: Batch Size&lt;/b&gt;&lt;/span&gt;" style="text;html=1;align=center;verticalAlign=middle;whiteSpace=wrap;rounded=0;" parent="1" vertex="1">
          <mxGeometry x="446.5300000000001" y="795.86" width="70" height="30" as="geometry" />
        </mxCell>
        <mxCell id="IWCZdA42NEQNfxDkU8em-466" value="&lt;span style=&quot;font-size: 10px;&quot;&gt;&lt;b&gt;T : Sequence Length&lt;/b&gt;&lt;/span&gt;" style="text;html=1;align=center;verticalAlign=middle;whiteSpace=wrap;rounded=0;" parent="1" vertex="1">
          <mxGeometry x="356.68000000000006" y="840.23" width="111" height="20" as="geometry" />
        </mxCell>
        <mxCell id="IWCZdA42NEQNfxDkU8em-467" value="" style="shape=crossbar;whiteSpace=wrap;html=1;rounded=1;direction=south;rotation=-90;" parent="1" vertex="1">
          <mxGeometry x="399.31999999999994" y="802.23" width="5.68" height="61.93" as="geometry" />
        </mxCell>
        <mxCell id="IWCZdA42NEQNfxDkU8em-468" value="" style="shape=crossbar;whiteSpace=wrap;html=1;rounded=1;direction=south;" parent="1" vertex="1">
          <mxGeometry x="437.49000000000024" y="797.6" width="6.27" height="28.26" as="geometry" />
        </mxCell>
        <mxCell id="IWCZdA42NEQNfxDkU8em-470" value="&lt;div style=&quot;text-align: justify;&quot;&gt;&lt;b style=&quot;color: light-dark(rgb(255, 153, 255), rgb(144, 56, 144)); font-size: 6px; background-color: transparent;&quot;&gt;100&amp;nbsp; &amp;nbsp;13&amp;nbsp; &amp;nbsp;&lt;/b&gt;&lt;b style=&quot;color: light-dark(rgb(255, 153, 255), rgb(144, 56, 144)); font-size: 6px; background-color: transparent;&quot;&gt;9&amp;nbsp; &amp;nbsp;&amp;nbsp;&lt;/b&gt;&lt;b style=&quot;color: light-dark(rgb(255, 153, 255), rgb(144, 56, 144)); font-size: 6px; background-color: transparent;&quot;&gt;31&amp;nbsp; &amp;nbsp;&lt;/b&gt;&lt;/div&gt;" style="text;html=1;align=center;verticalAlign=middle;whiteSpace=wrap;rounded=0;" parent="1" vertex="1">
          <mxGeometry x="370.66999999999996" y="797.83" width="62.02" height="12" as="geometry" />
        </mxCell>
        <mxCell id="IWCZdA42NEQNfxDkU8em-471" value="&lt;b style=&quot;forced-color-adjust: none; color: rgb(0, 0, 0); font-family: Helvetica; font-size: 12px; font-style: normal; font-variant-ligatures: normal; font-variant-caps: normal; letter-spacing: normal; orphans: 2; text-align: justify; text-indent: 0px; text-transform: none; widows: 2; word-spacing: 0px; -webkit-text-stroke-width: 0px; white-space: normal; text-decoration-thickness: initial; text-decoration-style: initial; text-decoration-color: initial; background-color: transparent;&quot;&gt;&lt;font data-mx-given-colors=&quot;{&amp;quot;color&amp;quot;:&amp;quot;rgb(255, 153, 255)&amp;quot;}&quot; style=&quot;forced-color-adjust: none; color: light-dark(rgb(255, 153, 255), rgb(144, 56, 144)); font-size: 6px;&quot;&gt;100&amp;nbsp; 12&amp;nbsp; &amp;nbsp;31&amp;nbsp; 330&amp;nbsp;&amp;nbsp;&lt;/font&gt;&lt;/b&gt;" style="text;whiteSpace=wrap;html=1;" parent="1" vertex="1">
          <mxGeometry x="374.93000000000006" y="803.23" width="59" height="17" as="geometry" />
        </mxCell>
        <mxCell id="IWCZdA42NEQNfxDkU8em-473" value="$$\text{idx}$$" style="ellipse;whiteSpace=wrap;html=1;fillColor=#FFCCFF;" parent="1" vertex="1">
          <mxGeometry x="643.12" y="802.2300000000001" width="26.9" height="26.27" as="geometry" />
        </mxCell>
        <mxCell id="IWCZdA42NEQNfxDkU8em-484" value="" style="shape=cube;whiteSpace=wrap;html=1;boundedLbl=1;backgroundOutline=1;darkOpacity=0.05;darkOpacity2=0.1;size=15;direction=east;rotation=0;strokeColor=#99FF99;" parent="1" vertex="1">
          <mxGeometry x="354.6000000000001" y="718.61" width="79.27" height="44.74" as="geometry" />
        </mxCell>
        <mxCell id="IWCZdA42NEQNfxDkU8em-485" value="" style="shape=crossbar;whiteSpace=wrap;html=1;rounded=1;direction=south;" parent="1" vertex="1">
          <mxGeometry x="439.33000000000015" y="734.35" width="6.27" height="28.26" as="geometry" />
        </mxCell>
        <mxCell id="IWCZdA42NEQNfxDkU8em-486" value="" style="shape=crossbar;whiteSpace=wrap;html=1;rounded=1;direction=south;rotation=-45;" parent="1" vertex="1">
          <mxGeometry x="429.47" y="712.59" width="7.27" height="19.09" as="geometry" />
        </mxCell>
        <mxCell id="IWCZdA42NEQNfxDkU8em-487" value="&lt;span style=&quot;font-size: 10px;&quot;&gt;&lt;b&gt;B&lt;/b&gt;&lt;/span&gt;" style="text;html=1;align=center;verticalAlign=middle;whiteSpace=wrap;rounded=0;rotation=0;" parent="1" vertex="1">
          <mxGeometry x="446.35" y="732.72" width="25.46" height="30" as="geometry" />
        </mxCell>
        <mxCell id="IWCZdA42NEQNfxDkU8em-488" value="&lt;span style=&quot;font-size: 10px;&quot;&gt;&lt;b&gt;n_embd&lt;/b&gt;&lt;/span&gt;" style="text;html=1;align=center;verticalAlign=middle;whiteSpace=wrap;rounded=0;" parent="1" vertex="1">
          <mxGeometry x="419.08000000000015" y="706.8100000000001" width="80" height="15" as="geometry" />
        </mxCell>
        <mxCell id="IWCZdA42NEQNfxDkU8em-489" value="" style="shape=crossbar;whiteSpace=wrap;html=1;rounded=1;direction=south;rotation=-90;" parent="1" vertex="1">
          <mxGeometry x="400.44000000000005" y="738.23" width="5.68" height="61.93" as="geometry" />
        </mxCell>
        <mxCell id="IWCZdA42NEQNfxDkU8em-490" value="&lt;span style=&quot;font-size: 10px;&quot;&gt;&lt;b&gt;T&lt;/b&gt;&lt;/span&gt;" style="text;html=1;align=center;verticalAlign=middle;whiteSpace=wrap;rounded=0;" parent="1" vertex="1">
          <mxGeometry x="385.00000000000006" y="769.4" width="28.46" height="16.09" as="geometry" />
        </mxCell>
        <mxCell id="IWCZdA42NEQNfxDkU8em-491" value="" style="shape=cube;whiteSpace=wrap;html=1;boundedLbl=1;backgroundOutline=1;darkOpacity=0.05;darkOpacity2=0.1;size=0;direction=east;rotation=0;strokeColor=#FF99FF;" parent="1" vertex="1">
          <mxGeometry x="369.8099999999999" y="734.9300000000001" width="64.93" height="27.79" as="geometry" />
        </mxCell>
        <mxCell id="IWCZdA42NEQNfxDkU8em-492" value="$$x$$" style="ellipse;whiteSpace=wrap;html=1;fillColor=#99FF99;" parent="1" vertex="1">
          <mxGeometry x="641.94" y="729.6300000000001" width="26.56" height="26" as="geometry" />
        </mxCell>
        <mxCell id="IWCZdA42NEQNfxDkU8em-501" value="&lt;b style=&quot;&quot;&gt;&lt;font style=&quot;font-size: 8px; background-color: rgb(153, 255, 153);&quot;&gt;Each token in each sequence is transformed to an embedding vector (size n_embd)&lt;/font&gt;&lt;/b&gt;" style="text;html=1;align=center;verticalAlign=middle;whiteSpace=wrap;rounded=0;" parent="1" vertex="1">
          <mxGeometry x="484" y="717.63" width="140" height="44" as="geometry" />
        </mxCell>
        <mxCell id="IWCZdA42NEQNfxDkU8em-502" value="&lt;b style=&quot;&quot;&gt;&lt;font style=&quot;font-size: 8px; background-color: rgb(255, 204, 255);&quot;&gt;Each token in each sequence is represented by an index (token id)&lt;/font&gt;&lt;/b&gt;" style="text;html=1;align=center;verticalAlign=middle;whiteSpace=wrap;rounded=0;" parent="1" vertex="1">
          <mxGeometry x="485.97" y="829.63" width="134.88" height="30" as="geometry" />
        </mxCell>
        <mxCell id="IWCZdA42NEQNfxDkU8em-530" style="edgeStyle=orthogonalEdgeStyle;curved=1;rounded=0;orthogonalLoop=1;jettySize=auto;html=1;exitX=0.5;exitY=0;exitDx=0;exitDy=0;entryX=0.5;entryY=1;entryDx=0;entryDy=0;" parent="1" source="IWCZdA42NEQNfxDkU8em-504" target="IWCZdA42NEQNfxDkU8em-440" edge="1">
          <mxGeometry relative="1" as="geometry" />
        </mxCell>
        <mxCell id="IWCZdA42NEQNfxDkU8em-504" value="" style="rounded=1;whiteSpace=wrap;html=1;shadow=1;arcSize=28;" parent="1" vertex="1">
          <mxGeometry x="394.22999999999996" y="364.63" width="256" height="62.37" as="geometry" />
        </mxCell>
        <mxCell id="IWCZdA42NEQNfxDkU8em-505" value="&lt;b style=&quot;&quot;&gt;&lt;font style=&quot;font-size: 8px; background-color: rgb(255, 217, 102);&quot;&gt;Contextual transformation of each token attending to other tokens.&lt;/font&gt;&lt;/b&gt;&lt;div&gt;&lt;b style=&quot;&quot;&gt;&lt;font style=&quot;font-size: 8px; background-color: rgb(255, 217, 102);&quot;&gt;&lt;br&gt;&lt;/font&gt;&lt;/b&gt;&lt;/div&gt;&lt;div&gt;&lt;br&gt;&lt;/div&gt;&lt;div&gt;&lt;b style=&quot;&quot;&gt;&lt;font style=&quot;font-size: 8px; background-color: rgb(255, 217, 102);&quot;&gt;&lt;br&gt;&lt;/font&gt;&lt;/b&gt;&lt;/div&gt;&lt;div&gt;&lt;br&gt;&lt;/div&gt;" style="text;html=1;align=center;verticalAlign=middle;whiteSpace=wrap;rounded=0;" parent="1" vertex="1">
          <mxGeometry x="325.62" y="479.14" width="142.06" height="42.89" as="geometry" />
        </mxCell>
        <mxCell id="IWCZdA42NEQNfxDkU8em-506" value="&lt;b style=&quot;&quot;&gt;&lt;font style=&quot;font-size: 8px; background-color: rgb(248, 206, 204);&quot;&gt;Operates independently on each token.&amp;nbsp;&lt;/font&gt;&lt;/b&gt;&lt;div&gt;&lt;b style=&quot;&quot;&gt;&lt;font style=&quot;font-size: 8px; background-color: rgb(248, 206, 204);&quot;&gt;Processes every position in the sequence in parallel.&lt;/font&gt;&lt;/b&gt;&lt;div&gt;&lt;span style=&quot;font-size: 8px; background-color: rgb(248, 206, 204);&quot;&gt;&lt;b&gt;Adds nonlinearity (to learn complex patterns) and depth.&lt;/b&gt;&lt;/span&gt;&lt;/div&gt;&lt;div&gt;&lt;div&gt;&lt;b style=&quot;&quot;&gt;&lt;font style=&quot;font-size: 8px; background-color: rgb(248, 206, 204);&quot;&gt;&lt;br&gt;&lt;/font&gt;&lt;/b&gt;&lt;/div&gt;&lt;div&gt;&lt;b style=&quot;&quot;&gt;&lt;font style=&quot;font-size: 8px; background-color: rgb(255, 217, 102);&quot;&gt;&lt;br&gt;&lt;/font&gt;&lt;/b&gt;&lt;/div&gt;&lt;/div&gt;&lt;/div&gt;" style="text;html=1;align=center;verticalAlign=middle;whiteSpace=wrap;rounded=0;" parent="1" vertex="1">
          <mxGeometry x="399.32000000000005" y="410" width="243" height="0.37" as="geometry" />
        </mxCell>
        <mxCell id="IWCZdA42NEQNfxDkU8em-507" style="edgeStyle=orthogonalEdgeStyle;curved=1;rounded=0;orthogonalLoop=1;jettySize=auto;html=1;entryX=0;entryY=0.5;entryDx=0;entryDy=0;exitX=1;exitY=0.5;exitDx=0;exitDy=0;" parent="1" edge="1">
          <mxGeometry relative="1" as="geometry">
            <mxPoint x="460.21000000000004" y="294.96000000000004" as="sourcePoint" />
            <mxPoint x="501.2100000000001" y="294.96000000000004" as="targetPoint" />
          </mxGeometry>
        </mxCell>
        <mxCell id="IWCZdA42NEQNfxDkU8em-508" style="edgeStyle=orthogonalEdgeStyle;curved=1;rounded=0;orthogonalLoop=1;jettySize=auto;html=1;entryX=0;entryY=0.5;entryDx=0;entryDy=0;exitX=1;exitY=0.5;exitDx=0;exitDy=0;" parent="1" edge="1">
          <mxGeometry relative="1" as="geometry">
            <mxPoint x="587.5599999999873" y="295.155" as="sourcePoint" />
            <mxPoint x="602.61" y="294.96000000000004" as="targetPoint" />
          </mxGeometry>
        </mxCell>
        <mxCell id="IWCZdA42NEQNfxDkU8em-511" value="&lt;b style=&quot;&quot;&gt;&lt;font style=&quot;font-size: 6px;&quot;&gt;n_embd x d_ff&lt;/font&gt;&lt;/b&gt;" style="text;html=1;align=center;verticalAlign=middle;whiteSpace=wrap;rounded=0;" parent="1" vertex="1">
          <mxGeometry x="221" y="454" width="70" height="15" as="geometry" />
        </mxCell>
        <mxCell id="IWCZdA42NEQNfxDkU8em-512" value="&lt;b style=&quot;background-color: transparent; color: light-dark(rgb(0, 0, 0), rgb(255, 255, 255));&quot;&gt;&lt;font style=&quot;font-size: 6px;&quot;&gt;d_ff x n_embd&lt;/font&gt;&lt;/b&gt;" style="text;html=1;align=center;verticalAlign=middle;whiteSpace=wrap;rounded=0;" parent="1" vertex="1">
          <mxGeometry x="223.12" y="408" width="70" height="15" as="geometry" />
        </mxCell>
        <mxCell id="IWCZdA42NEQNfxDkU8em-523" style="edgeStyle=orthogonalEdgeStyle;curved=1;rounded=0;orthogonalLoop=1;jettySize=auto;html=1;exitX=0.5;exitY=0;exitDx=0;exitDy=0;entryX=0.5;entryY=1;entryDx=0;entryDy=0;" parent="1" source="54" target="IWCZdA42NEQNfxDkU8em-463" edge="1">
          <mxGeometry relative="1" as="geometry">
            <mxPoint x="520.8199999999999" y="1031" as="sourcePoint" />
            <mxPoint x="503" y="881" as="targetPoint" />
          </mxGeometry>
        </mxCell>
        <mxCell id="IWCZdA42NEQNfxDkU8em-532" value="&lt;b style=&quot;&quot;&gt;&lt;font style=&quot;font-size: 8px; color: rgb(199, 199, 199);&quot;&gt;@iriacardielperez&lt;/font&gt;&lt;/b&gt;" style="text;html=1;align=center;verticalAlign=middle;whiteSpace=wrap;rounded=0;rotation=0;" parent="1" vertex="1">
          <mxGeometry x="678" y="9" width="148.77" height="43" as="geometry" />
        </mxCell>
        <mxCell id="2" value="" style="rounded=1;whiteSpace=wrap;html=1;shadow=1;" parent="1" vertex="1">
          <mxGeometry x="434.25" y="935" width="164.95" height="46" as="geometry" />
        </mxCell>
        <mxCell id="3" value="&lt;div style=&quot;text-align: justify;&quot;&gt;&lt;font style=&quot;font-size: 8px;&quot;&gt;&lt;b style=&quot;background-color: transparent; color: light-dark(rgb(0, 0, 0), rgb(255, 255, 255));&quot;&gt;sequence 1: &lt;/b&gt;&lt;b style=&quot;background-color: transparent;&quot;&gt;&lt;font face=&quot;Courier New&quot; style=&quot;color: light-dark(rgb(255, 153, 255), rgb(255, 255, 255));&quot;&gt;100, 13, 9, 31&lt;/font&gt;&lt;/b&gt;&lt;/font&gt;&lt;/div&gt;&lt;div style=&quot;text-align: justify;&quot;&gt;&lt;b style=&quot;&quot;&gt;&lt;font style=&quot;font-size: 8px;&quot;&gt;sequence 2:&amp;nbsp;&lt;/font&gt;&lt;/b&gt;&lt;b style=&quot;background-color: transparent; font-size: 8px; color: rgb(63, 63, 63);&quot;&gt;&lt;font face=&quot;Courier New&quot; color=&quot;#ff99ff&quot;&gt;100, 12, 31, 330&lt;/font&gt;&lt;/b&gt;&lt;/div&gt;" style="text;html=1;align=center;verticalAlign=middle;whiteSpace=wrap;rounded=0;" parent="1" vertex="1">
          <mxGeometry x="412.43" y="937.06" width="206.64" height="37.94" as="geometry" />
        </mxCell>
        <mxCell id="9" value="" style="edgeStyle=orthogonalEdgeStyle;curved=1;rounded=0;orthogonalLoop=1;jettySize=auto;html=1;entryX=0;entryY=0.5;entryDx=0;entryDy=0;exitX=1;exitY=0.5;exitDx=0;exitDy=0;" parent="1" target="8" edge="1">
          <mxGeometry relative="1" as="geometry">
            <mxPoint x="554.61" y="294.96000000000004" as="sourcePoint" />
            <mxPoint x="595.61" y="294.96000000000004" as="targetPoint" />
          </mxGeometry>
        </mxCell>
        <mxCell id="8" value="&lt;font style=&quot;font-size: 10px;&quot;&gt;$$y$$&lt;/font&gt;" style="ellipse;whiteSpace=wrap;html=1;fillColor=#00CCCC;" parent="1" vertex="1">
          <mxGeometry x="550.54" y="278.94" width="30.02" height="32.43" as="geometry" />
        </mxCell>
        <mxCell id="18" value="" style="edgeStyle=elbowEdgeStyle;elbow=vertical;endArrow=classic;html=1;curved=0;rounded=0;endSize=8;startSize=8;exitX=1;exitY=0.5;exitDx=0;exitDy=0;entryX=0.988;entryY=0.603;entryDx=0;entryDy=0;entryPerimeter=0;" parent="1" source="IWCZdA42NEQNfxDkU8em-462" target="31" edge="1">
          <mxGeometry width="50" height="50" relative="1" as="geometry">
            <mxPoint x="704" y="319" as="sourcePoint" />
            <mxPoint x="681.9199999999998" y="997" as="targetPoint" />
            <Array as="points">
              <mxPoint x="776" y="657" />
            </Array>
          </mxGeometry>
        </mxCell>
        <mxCell id="19" value="&lt;font style=&quot;font-size: 10px;&quot;&gt;&lt;b&gt;$$+$$&lt;/b&gt;&lt;/font&gt;" style="ellipse;whiteSpace=wrap;html=1;align=center;strokeColor=none;" parent="1" vertex="1">
          <mxGeometry x="602.35" y="946.78" width="18.5" height="18.5" as="geometry" />
        </mxCell>
        <mxCell id="20" value="&lt;font color=&quot;#ffffff&quot; style=&quot;font-size: 12px;&quot;&gt;Loss&lt;/font&gt;" style="rounded=1;whiteSpace=wrap;html=1;fillColor=#000000;" parent="1" vertex="1">
          <mxGeometry x="714" y="943.5" width="54.22" height="34" as="geometry" />
        </mxCell>
        <mxCell id="24" value="" style="rounded=1;whiteSpace=wrap;html=1;shadow=1;" parent="1" vertex="1">
          <mxGeometry x="656.43" y="909" width="43.46" height="46" as="geometry" />
        </mxCell>
        <mxCell id="29" value="&lt;p&gt;&lt;font face=&quot;Courier New&quot; style=&quot;font-size: 8px;&quot;&gt;&lt;b&gt;&lt;font color=&quot;#ff8000&quot;&gt;41&lt;br&gt;&lt;/font&gt;&lt;font color=&quot;#ff8000&quot;&gt;50&lt;/font&gt;&lt;/b&gt;&lt;/font&gt;&lt;/p&gt;" style="text;html=1;align=center;verticalAlign=middle;whiteSpace=wrap;rounded=0;" parent="1" vertex="1">
          <mxGeometry x="667.37" y="916" width="23.77" height="31" as="geometry" />
        </mxCell>
        <mxCell id="30" value="" style="rounded=1;whiteSpace=wrap;html=1;shadow=1;" parent="1" vertex="1">
          <mxGeometry x="626.78" y="935" width="44.22" height="46" as="geometry" />
        </mxCell>
        <mxCell id="31" value="&lt;div style=&quot;text-align: justify;&quot;&gt;&lt;b style=&quot;background-color: transparent;&quot;&gt;&lt;font face=&quot;Courier New&quot; style=&quot;color: rgb(0, 204, 204); font-size: 8px;&quot;&gt;41&lt;/font&gt;&lt;/b&gt;&lt;/div&gt;&lt;div style=&quot;text-align: justify;&quot;&gt;&lt;b style=&quot;background-color: transparent;&quot;&gt;&lt;font face=&quot;Courier New&quot; style=&quot;color: rgb(0, 204, 204); font-size: 8px;&quot;&gt;50&lt;/font&gt;&lt;/b&gt;&lt;/div&gt;" style="text;html=1;align=center;verticalAlign=middle;whiteSpace=wrap;rounded=0;" parent="1" vertex="1">
          <mxGeometry x="627.3" y="938.5" width="44.25" height="39" as="geometry" />
        </mxCell>
        <mxCell id="38" value="&lt;font style=&quot;font-size: 8px;&quot;&gt;truth&lt;/font&gt;" style="text;html=1;align=center;verticalAlign=middle;whiteSpace=wrap;rounded=0;" parent="1" vertex="1">
          <mxGeometry x="666.2" y="891" width="26.12" height="18" as="geometry" />
        </mxCell>
        <mxCell id="39" value="&lt;font style=&quot;font-size: 8px;&quot;&gt;predicted&lt;/font&gt;" style="text;html=1;align=center;verticalAlign=middle;whiteSpace=wrap;rounded=0;" parent="1" vertex="1">
          <mxGeometry x="613.52" y="916" width="42.25" height="17" as="geometry" />
        </mxCell>
        <mxCell id="44" value="" style="endArrow=none;html=1;rounded=0;curved=1;exitDx=0;exitDy=0;entryX=0.5;entryY=0;entryDx=0;entryDy=0;" edge="1" parent="1" source="IWCZdA42NEQNfxDkU8em-82" target="43">
          <mxGeometry width="50" height="50" relative="1" as="geometry">
            <mxPoint x="235" y="515" as="sourcePoint" />
            <mxPoint x="235" y="902" as="targetPoint" />
          </mxGeometry>
        </mxCell>
        <mxCell id="43" value="&lt;font style=&quot;font-size: 8px;&quot;&gt;$$+$$&lt;/font&gt;" style="ellipse;whiteSpace=wrap;html=1;align=center;" vertex="1" parent="1">
          <mxGeometry x="225.75" y="529.64" width="18.5" height="18.5" as="geometry" />
        </mxCell>
        <mxCell id="46" value="" style="endArrow=none;html=1;rounded=0;curved=1;exitX=0.5;exitY=1;exitDx=0;exitDy=0;entryDx=0;entryDy=0;" edge="1" parent="1" target="45">
          <mxGeometry width="50" height="50" relative="1" as="geometry">
            <mxPoint x="235.75" y="371.72" as="sourcePoint" />
            <mxPoint x="235" y="515" as="targetPoint" />
          </mxGeometry>
        </mxCell>
        <mxCell id="45" value="&lt;font style=&quot;font-size: 8px;&quot;&gt;$$+$$&lt;/font&gt;" style="ellipse;whiteSpace=wrap;html=1;align=center;" vertex="1" parent="1">
          <mxGeometry x="225.75" y="358" width="18.5" height="18.5" as="geometry" />
        </mxCell>
        <mxCell id="52" value="&lt;pre style=&quot;text-wrap-mode: nowrap;&quot;&gt;&lt;div style=&quot;text-align: justify;&quot;&gt;&lt;span style=&quot;background-color: transparent; white-space-collapse: collapse; font-size: 6px; font-family: Helvetica;&quot;&gt;The sun peeked through the blinds as I poured myself a cup of black coffee.&lt;/span&gt;&lt;/div&gt;&lt;font style=&quot;font-size: 6px;&quot;&gt;&lt;div style=&quot;text-align: justify;&quot;&gt;&lt;span style=&quot;white-space-collapse: collapse; background-color: transparent; font-family: Helvetica;&quot; data-end=&quot;168&quot; data-start=&quot;145&quot;&gt;My favorite cake is&lt;/span&gt;&lt;span style=&quot;white-space-collapse: collapse; background-color: transparent; font-family: Helvetica;&quot;&gt;&amp;nbsp;lemon drizzle — it reminds me of summer afternoons&amp;nbsp;&lt;/span&gt;&lt;/div&gt;&lt;font style=&quot;&quot;&gt;&lt;div style=&quot;text-align: justify;&quot;&gt;&lt;span style=&quot;white-space-collapse: collapse; background-color: transparent; font-family: Helvetica;&quot;&gt;at my grandmother&#39;s house. I took a bite, savoring the tangy sweetness,&amp;nbsp;&lt;/span&gt;&lt;/div&gt;&lt;/font&gt;&lt;font style=&quot;&quot;&gt;&lt;div style=&quot;text-align: justify;&quot;&gt;&lt;span style=&quot;white-space-collapse: collapse; background-color: transparent; font-family: Helvetica;&quot;&gt;when I caught my reflection in the window.&amp;nbsp;&lt;/span&gt;&lt;span style=&quot;white-space-collapse: collapse; background-color: transparent; font-family: Helvetica;&quot; data-end=&quot;354&quot; data-start=&quot;335&quot;&gt;My hair is very&lt;/span&gt;&lt;span style=&quot;white-space-collapse: collapse; background-color: transparent; font-family: Helvetica;&quot;&gt;&amp;nbsp;frizzy today,&amp;nbsp;&lt;/span&gt;&lt;/div&gt;&lt;/font&gt;&lt;font style=&quot;&quot;&gt;&lt;div style=&quot;text-align: justify;&quot;&gt;&lt;font style=&quot;white-space-collapse: collapse; background-color: transparent; font-family: Helvetica;&quot;&gt;probably thanks to the humidity.&amp;nbsp;&lt;/font&gt;&lt;font style=&quot;white-space-collapse: collapse; background-color: transparent; font-family: Helvetica;&quot;&gt;Still, it kind of works with the chaotic energy&lt;/font&gt;&lt;/div&gt;&lt;/font&gt;&lt;font style=&quot;background-color: transparent;&quot;&gt;&lt;div style=&quot;text-align: justify;&quot;&gt;&lt;font style=&quot;white-space-collapse: collapse; background-color: transparent; font-family: Helvetica;&quot;&gt;&amp;nbsp;of the morning.&lt;/font&gt;&lt;font style=&quot;white-space-collapse: collapse; background-color: transparent; font-family: Helvetica;&quot;&gt;&amp;nbsp;&lt;span style=&quot;background-color: transparent;&quot;&gt;I threw on a&amp;nbsp;&lt;/span&gt;&lt;/font&gt;&lt;span style=&quot;white-space-collapse: collapse; background-color: transparent; font-family: Helvetica;&quot;&gt;light jacket and stepped outside, the warm&amp;nbsp;&lt;/span&gt;&lt;/div&gt;&lt;/font&gt;&lt;span style=&quot;background-color: transparent;&quot;&gt;&lt;div style=&quot;text-align: justify;&quot;&gt;&lt;span style=&quot;background-color: transparent; white-space-collapse: collapse; font-family: Helvetica;&quot;&gt;breeze tousling my curls even more. The street was quiet, save for the&amp;nbsp;&lt;/span&gt;&lt;/div&gt;&lt;/span&gt;&lt;span style=&quot;background-color: transparent;&quot;&gt;&lt;div style=&quot;text-align: justify;&quot;&gt;&lt;span style=&quot;background-color: transparent; white-space-collapse: collapse; font-family: Helvetica;&quot;&gt;distant rumble of a delivery truck and the chirping of a persistent sparrow.&amp;nbsp;&lt;/span&gt;&lt;/div&gt;&lt;/span&gt;&lt;/font&gt;&lt;/pre&gt;" style="rounded=1;whiteSpace=wrap;html=1;align=left;arcSize=1;" vertex="1" parent="1">
          <mxGeometry x="57.510000000000005" y="1031" width="208" height="72" as="geometry" />
        </mxCell>
        <mxCell id="53" style="edgeStyle=orthogonalEdgeStyle;curved=1;rounded=0;orthogonalLoop=1;jettySize=auto;html=1;exitX=1;exitY=0.5;exitDx=0;exitDy=0;entryX=0;entryY=0.5;entryDx=0;entryDy=0;" edge="1" parent="1" source="52" target="54">
          <mxGeometry relative="1" as="geometry">
            <mxPoint x="530.8199999999999" y="1067" as="sourcePoint" />
            <mxPoint x="532" y="911" as="targetPoint" />
          </mxGeometry>
        </mxCell>
        <mxCell id="54" value="&lt;pre style=&quot;text-wrap-mode: nowrap;&quot;&gt;&lt;div style=&quot;text-align: justify;&quot;&gt;&lt;div&gt;&lt;font face=&quot;Courier New&quot; style=&quot;font-size: 8px;&quot;&gt;87, 4, 196, 122, 93, 30, 11, 65, 73, 101, 142,&lt;/font&gt;&lt;/div&gt;&lt;div&gt;&lt;font face=&quot;Courier New&quot;&gt;&lt;font style=&quot;font-size: 8px;&quot;&gt;163, 190, 175, &lt;font color=&quot;#ff99ff&quot;&gt;100, 13 9, 31&lt;/font&gt;, &lt;font color=&quot;#ff8000&quot;&gt;41&lt;/font&gt;, 26,&amp;nbsp;&lt;/font&gt;&lt;span style=&quot;font-size: 8px; white-space-collapse: collapse; background-color: transparent;&quot;&gt;155,&amp;nbsp;&lt;/span&gt;&lt;/font&gt;&lt;/div&gt;&lt;div&gt;&lt;span style=&quot;font-size: 8px; white-space-collapse: collapse; background-color: transparent;&quot;&gt;&lt;font face=&quot;Courier New&quot;&gt;68, 103, 44, 12, 25, 6, 83, 33, 97, 187, 179,&lt;/font&gt;&lt;/span&gt;&lt;/div&gt;&lt;div&gt;&lt;span style=&quot;font-size: 8px; white-space-collapse: collapse; background-color: transparent;&quot;&gt;&lt;font face=&quot;Courier New&quot;&gt;115, 99, 167, 5&lt;/font&gt;&lt;/span&gt;&lt;font style=&quot;white-space-collapse: collapse; background-color: transparent;&quot; face=&quot;Courier New&quot;&gt;&lt;span style=&quot;font-size: 8px; background-color: transparent;&quot;&gt;5, 72, 173, 53, 198,&amp;nbsp;&lt;/span&gt;&lt;span style=&quot;font-size: 8px; background-color: transparent;&quot;&gt;17, 120,&lt;/span&gt;&lt;/font&gt;&lt;/div&gt;&lt;div&gt;&lt;font style=&quot;white-space-collapse: collapse; background-color: transparent;&quot; face=&quot;Courier New&quot;&gt;&lt;span style=&quot;font-size: 8px; background-color: transparent;&quot;&gt;36, 195, &lt;font color=&quot;#ff99ff&quot;&gt;100, 12 31, 330&lt;/font&gt;&lt;/span&gt;&lt;/font&gt;&lt;font style=&quot;white-space-collapse: collapse; background-color: transparent;&quot; face=&quot;Courier New&quot;&gt;&lt;span style=&quot;font-size: 8px; background-color: transparent;&quot;&gt;, &lt;font color=&quot;#ff8000&quot;&gt;50&lt;/font&gt;, 110, 188, &lt;/span&gt;&lt;/font&gt;&lt;span style=&quot;white-space-collapse: collapse; background-color: transparent; font-size: 8px; font-family: Helvetica;&quot;&gt;&amp;nbsp;&lt;/span&gt;&lt;/div&gt;&lt;/div&gt;&lt;/pre&gt;" style="rounded=1;whiteSpace=wrap;html=1;align=left;arcSize=1;" vertex="1" parent="1">
          <mxGeometry x="407.23" y="1027" width="230" height="76" as="geometry" />
        </mxCell>
        <mxCell id="55" value="&lt;font color=&quot;#ffffff&quot; style=&quot;font-size: 10px;&quot;&gt;Tokenizer&lt;/font&gt;&lt;div&gt;&lt;font color=&quot;#ffffff&quot; style=&quot;font-size: 10px;&quot;&gt;(encode)&lt;/font&gt;&lt;/div&gt;" style="rounded=1;whiteSpace=wrap;html=1;fillColor=#4C0099;" vertex="1" parent="1">
          <mxGeometry x="307" y="1052" width="54.22" height="34" as="geometry" />
        </mxCell>
        <mxCell id="56" value="&lt;font style=&quot;font-size: 8px;&quot;&gt;random sequences (samples)&amp;nbsp;&lt;/font&gt;" style="rounded=1;whiteSpace=wrap;html=1;fillColor=#FFFFFF;strokeColor=#FFFFFF;" vertex="1" parent="1">
          <mxGeometry x="461.82" y="995" width="118.74" height="16" as="geometry" />
        </mxCell>
        <mxCell id="57" value="&lt;span style=&quot;font-size: 10px;&quot;&gt;&lt;b&gt;Batch&lt;/b&gt;&lt;/span&gt;" style="text;html=1;align=center;verticalAlign=middle;whiteSpace=wrap;rounded=0;" vertex="1" parent="1">
          <mxGeometry x="391.33000000000004" y="945" width="31.51" height="30" as="geometry" />
        </mxCell>
        <mxCell id="59" value="&lt;span style=&quot;font-size: 10px;&quot;&gt;&lt;b&gt;Dataset split (train / val)&lt;/b&gt;&lt;/span&gt;" style="text;html=1;align=center;verticalAlign=middle;whiteSpace=wrap;rounded=0;" vertex="1" parent="1">
          <mxGeometry x="56" y="999" width="117" height="30" as="geometry" />
        </mxCell>
      </root>
    </mxGraphModel>
  </diagram>
</mxfile>
